<svg width="151" height="45" viewBox="0 0 151 45" fill="none" xmlns="http://www.w3.org/2000/svg">
<path d="M71.9499 27.4512C71.2007 24.1617 66.1859 20.2546 35.1186 25.6492C35.1186 20.6313 35.1768 17.2058 35.1186 8.66539C35.0759 2.64166 32.0134 -1.67322 26.7075 0.629859C16.2353 5.17388 6.49665 17.7962 0.806413 28.6979C-0.967419 32.0923 0.255243 38.2132 5.40207 37.8753C14.2441 37.2927 20.8231 34.2439 29.4206 32.4341C29.9485 37.4131 34.0745 45.1379 40.9563 44.9981C57.3206 44.6602 73.0406 32.2555 71.946 27.4551L71.9499 27.4512ZM28.5939 26.923C24.7823 27.4357 15.2649 29.5213 6.97407 31.8554C6.64414 31.9486 6.33751 31.6496 6.41902 31.3195C7.47866 26.9891 11.9307 21.6566 14.2635 18.8525C17.3337 15.1668 23.6139 8.36634 28.59 6.1021C28.2872 11.0073 28.2135 21.4935 28.59 26.9269L28.5939 26.923ZM63.9579 29.8669C60.7169 32.9584 48.9444 38.7258 42.769 39.2229C38.5265 39.5647 35.0254 35.1683 35.1768 31.3195C40.1102 29.2183 56.9829 28.8028 63.694 28.8105C64.8662 28.8105 64.1986 29.6339 63.9579 29.8669Z" fill="#C0CBD6"/>
<path d="M26.1873 4.89423C10.4286 11.6831 5.60392 20.2118 0.814182 28.6707C-1.07221 32.003 0.263015 38.186 5.40984 37.8481C14.2518 37.2655 20.8309 34.2167 29.4284 32.4069L28.5977 26.8997C24.7861 27.4124 15.2688 29.498 6.97796 31.8321C6.64803 31.9253 6.3414 31.6263 6.42291 31.2961C7.48255 26.9657 11.9346 21.6333 14.2674 18.8292C17.3376 15.1435 23.6178 8.34302 28.5939 6.07878C28.5939 6.07878 28.4231 3.93105 26.1796 4.89811L26.1873 4.89423Z" fill="#41A6DC"/>
<path d="M63.3058 23.1325C62.7741 23.0897 62.2035 23.0587 61.6057 23.0354C61.5514 23.0354 61.497 23.0315 61.4427 23.0276C61.2952 23.0237 61.1477 23.016 60.9963 23.0121C60.6509 23.0004 60.2899 22.9965 59.9212 22.9927C59.8668 22.9927 59.8125 22.9927 59.7582 22.9927C59.4826 22.9927 59.1953 22.9927 58.9081 22.9965C58.7839 22.9965 58.6675 22.9965 58.5433 22.9965C58.5433 22.9965 58.5433 22.9965 58.5394 22.9965C57.7631 23.0121 56.9441 23.0393 56.0785 23.0781C50.9239 23.3228 44.1158 24.1034 35.1264 25.6647L35.1846 31.335C38.872 29.7621 49.1617 29.1213 56.9247 28.9038C56.9247 28.9076 56.9247 28.9115 56.9324 28.9154C59.6145 28.8416 62.0016 28.8144 63.7211 28.8144C64.8933 28.8144 64.2257 29.6378 63.9851 29.8708C63.7871 30.0611 63.5542 30.2631 63.2942 30.4689C64.478 29.6727 65.2582 28.3212 65.2582 26.7871C65.2582 25.253 64.4897 23.9209 63.3213 23.1208L63.3058 23.1325Z" fill="#41A6DC"/>
<path d="M63.694 28.8105C63.4766 27.9328 57.8563 25.6142 49.7363 26.0686C43.9218 26.3948 39.2679 26.6667 35.1303 27.0046L35.1691 31.2185C41.3018 29.9135 49.4102 28.7639 63.6901 28.8105L63.694 28.8105Z" fill="#009FDE"/>
<path d="M6.912 31.8477C5.77473 33.5876 15.0476 34.9741 20.0003 34.3915C23.5092 33.9799 26.3814 33.3002 29.44 32.5545L28.6987 27.6338C22.0653 28.4183 15.9713 29.6067 6.912 31.8477Z" fill="#009FDE"/>
<path d="M88 7.3792C88 6.40867 88.8269 5.58179 89.8712 5.58179C90.9155 5.58179 91.7423 6.37374 91.7423 7.34426C91.7423 8.38854 90.9504 9.21543 89.8712 9.21543C88.7919 9.21543 88 8.38854 88 7.38308V7.3792ZM88.5745 13.3499H91.129V32.2673H88.5745V13.3499Z" fill="#242020"/>
<path d="M113.963 13.346V29.9614C113.963 36.4716 110.765 39.4181 104.507 39.4181C101.055 39.4181 97.6742 38.3739 95.6943 36.5066L96.987 34.5655C98.7844 36.1844 101.517 37.1549 104.433 37.1549C109.216 37.1549 111.409 34.9615 111.409 30.2874V27.8767C109.825 30.2874 107.131 31.5452 104.037 31.5452C98.6408 31.5452 94.5413 27.768 94.5413 22.3408C94.5413 16.9136 98.6408 13.2062 104.037 13.2062C107.201 13.2062 109.934 14.499 111.518 16.9835V13.3499H113.963V13.346ZM111.483 22.3369C111.483 18.2374 108.463 15.4307 104.289 15.4307C100.116 15.4307 97.1346 18.2374 97.1346 22.3369C97.1346 26.4364 100.12 29.2781 104.289 29.2781C108.459 29.2781 111.483 26.4364 111.483 22.3369Z" fill="#242020"/>
<path d="M128.851 13.2023V15.683C128.634 15.683 128.42 15.6481 128.238 15.6481C124.282 15.6481 121.871 18.1637 121.871 22.6242V32.2634H119.317V13.346H121.763V17.0495C122.95 14.5339 125.357 13.2023 128.847 13.2023H128.851Z" fill="#242020"/>
<path d="M150.82 22.8066C150.82 28.5599 146.79 32.4459 141.398 32.4459C138.378 32.4459 135.789 31.1493 134.205 28.7074V39.2434H131.65V13.346H134.096V17.0844C135.641 14.5688 138.269 13.2023 141.394 13.2023C146.79 13.2023 150.816 17.0844 150.816 22.8028L150.82 22.8066ZM148.266 22.8066C148.266 18.4199 145.21 15.4345 141.216 15.4345C137.221 15.4345 134.166 18.4199 134.166 22.8066C134.166 27.1934 137.186 30.1788 141.216 30.1788C145.245 30.1788 148.266 27.2284 148.266 22.8066Z" fill="#242020"/>
</svg>
